HIERARCHY
ROOT Hips
{
	OFFSET 0.00 86.18 0.00
	CHANNELS 6 Xposition Yposition Zposition Yrotation Xrotation Zrotation
	JOINT RightUpLeg
	{
		OFFSET -9.25 0.00 0.00
		CHANNELS 6 Xposition Yposition Zposition Yrotation Xrotation Zrotation
		JOINT RightLeg
		{
			OFFSET 0.00 -42.00 0.00
			CHANNELS 6 Xposition Yposition Zposition Yrotation Xrotation Zrotation
			JOINT RightFoot
			{
				OFFSET 0.00 -42.00 0.00
				CHANNELS 6 Xposition Yposition Zposition Yrotation Xrotation Zrotation
				End Site
				{
					OFFSET 0 -1.14 11.36
				}
			}
		}
	}
	JOINT LeftUpLeg
	{
		OFFSET 9.25 0.00 0.00
		CHANNELS 6 Xposition Yposition Zposition Yrotation Xrotation Zrotation
		JOINT LeftLeg
		{
			OFFSET 0.00 -42.00 0.00
			CHANNELS 6 Xposition Yposition Zposition Yrotation Xrotation Zrotation
			JOINT LeftFoot
			{
				OFFSET 0.00 -42.00 0.00
				CHANNELS 6 Xposition Yposition Zposition Yrotation Xrotation Zrotation
				End Site
				{
					OFFSET 0 -1.14 11.36
				}
			}
		}
	}
	JOINT Spine
	{
		OFFSET 0.00 10.46 0.00
		CHANNELS 6 Xposition Yposition Zposition Yrotation Xrotation Zrotation
		JOINT Spine1
		{
			OFFSET 0.00 9.75 0.00
			CHANNELS 6 Xposition Yposition Zposition Yrotation Xrotation Zrotation
			JOINT Spine2
			{
				OFFSET 0.00 10.15 0.00
				CHANNELS 6 Xposition Yposition Zposition Yrotation Xrotation Zrotation
				JOINT Spine3
				{
					OFFSET 0.00 9.75 0.00
					CHANNELS 6 Xposition Yposition Zposition Yrotation Xrotation Zrotation
			 		JOINT Neck
					{
						OFFSET 0.00 10.42 0.00
						CHANNELS 6 Xposition Yposition Zposition Yrotation Xrotation Zrotation
						JOINT Head
						{
							OFFSET 0.00 9.50 0.00
							CHANNELS 6 Xposition Yposition Zposition Yrotation Xrotation Zrotation
							End Site
							{
								OFFSET 0 16.00 0
							}
						}    
					} 
					JOINT RightShoulder
	 					{
						OFFSET -3.20 6.94 0.00
						CHANNELS 6 Xposition Yposition Zposition Yrotation Xrotation Zrotation
						JOINT RightArm
						{
							OFFSET -16.00 0.00 0.00
							CHANNELS 6 Xposition Yposition Zposition Yrotation Xrotation Zrotation
							JOINT RightForeArm
							{
								OFFSET -26.50 0.00 0.00
								CHANNELS 6 Xposition Yposition Zposition Yrotation Xrotation Zrotation
								JOINT RightHand
								{
									OFFSET -26.00 0.00 0.00
									CHANNELS 6 Xposition Yposition Zposition Yrotation Xrotation Zrotation
									End Site
									{
										OFFSET -17.50 0 0
									}
								}
							}
						}	
					}
					JOINT LeftShoulder
					{
						OFFSET 3.20 6.94 0.00
						CHANNELS 6 Xposition Yposition Zposition Yrotation Xrotation Zrotation
						JOINT LeftArm
						{
							OFFSET 16.00 0.00 0.00
							CHANNELS 6 Xposition Yposition Zposition Yrotation Xrotation Zrotation
							JOINT LeftForeArm
							{
								OFFSET 26.50 0.00 0.00
								CHANNELS 6 Xposition Yposition Zposition Yrotation Xrotation Zrotation
								JOINT LeftHand
								{
									OFFSET 26.00 0.00 0.00
									CHANNELS 6 Xposition Yposition Zposition Yrotation Xrotation Zrotation
									End Site
									{
										OFFSET 17.50 0 0
									}
								}
							}
						}
					}     			
				}
			}
		} 
	} 
}
MOTION
Frames: 5
Frame Time: 0.010
-25.18 87.95 55.15 82.22 -10.48 1.15 -8.16 -0.14 -0.97 -8.83 -10.04 -16.72 1.35 -42.24 -0.34 3.63 47.71 0.76 1.26 -41.45 0.67 -3.23 -14.48 -0.89 9.33 0.08 0.10 -5.27 3.69 15.61 -0.15 -41.81 -0.45 3.13 17.40 2.27 -0.20 -42.17 -0.68 6.67 -6.19 -9.28 -0.14 10.40 0.12 -9.95 13.01 4.62 -0.01 9.64 0.05 -2.40 3.09 1.37 0.12 10.01 -0.05 -3.76 4.99 2.17 0.11 9.60 -0.04 0.11 -0.21 -0.65 -0.03 10.34 -0.03 0.11 -0.21 -0.65 -0.07 9.40 0.30 2.69 -3.35 -11.89 -3.15 7.02 0.11 0.74 0.42 0.34 -16.31 0.55 1.49 -7.07 -5.10 54.47 -26.74 0.82 1.03 115.18 16.43 -6.36 -25.78 1.60 -0.83 0.75 -44.06 15.48 3.27 7.14 -0.14 -2.83 6.69 -2.72 16.80 1.96 0.25 -29.11 -20.79 -63.36 25.20 2.86 0.38 -68.75 -5.42 -12.90 26.18 1.94 -0.05 -5.39 -50.60 -41.58 
-25.18 87.95 55.15 82.22 -10.48 1.15 -8.16 -0.14 -0.97 -8.83 -10.04 -16.72 1.35 -42.24 -0.34 3.63 47.71 0.76 1.26 -41.45 0.67 -3.23 -14.48 -0.89 9.33 0.08 0.10 -5.27 3.69 15.61 -0.15 -41.81 -0.45 3.13 17.40 2.27 -0.20 -42.17 -0.68 6.67 -6.19 -9.28 -0.15 10.40 0.13 -9.95 13.01 4.62 -0.03 9.63 0.08 -2.40 3.09 1.37 0.11 10.01 -0.02 -3.76 4.99 2.17 0.09 9.60 -0.02 0.11 -0.21 -0.65 -0.07 10.34 0.02 0.11 -0.21 -0.65 -0.09 9.39 0.32 2.69 -3.35 -11.89 -3.17 7.02 0.14 0.74 0.42 0.34 -16.31 0.55 1.49 -7.07 -5.10 54.47 -26.74 0.82 1.03 115.18 16.43 -6.36 -25.78 1.60 -0.83 0.75 -44.06 15.48 3.25 7.14 -0.11 -2.83 6.69 -2.72 16.80 1.96 0.25 -29.11 -20.79 -63.36 25.20 2.86 0.38 -68.75 -5.42 -12.90 26.18 1.94 -0.05 -5.39 -50.60 -41.58 
-25.20 87.93 55.22 82.22 -10.48 1.15 -8.09 -0.12 -0.96 -8.83 -10.04 -16.72 1.35 -42.24 -0.34 3.63 47.71 0.76 1.20 -41.49 0.69 -3.23 -14.48 -0.89 9.39 0.10 0.11 -5.27 3.69 15.61 -0.15 -41.81 -0.45 3.13 17.40 2.27 -0.20 -42.17 -0.68 6.67 -6.19 -9.28 -0.09 10.41 0.16 -9.95 13.01 4.62 -0.06 9.62 0.11 -2.40 3.09 1.37 0.09 10.01 0.00 -3.76 4.99 2.17 0.06 9.60 0.01 0.11 -0.21 -0.65 -0.12 10.34 0.08 0.11 -0.21 -0.65 -0.11 9.39 0.35 2.69 -3.35 -11.89 -3.19 7.02 0.17 0.74 0.42 0.34 -16.31 0.55 1.49 -7.07 -5.10 54.47 -26.74 0.82 1.03 115.18 16.43 -6.36 -25.78 1.60 -0.83 0.75 -44.06 15.48 3.22 7.14 -0.08 -2.83 6.69 -2.72 16.80 1.96 0.25 -29.11 -20.79 -63.36 25.20 2.86 0.38 -68.75 -5.42 -12.90 26.18 1.94 -0.05 -5.39 -50.60 -41.58 
-25.22 87.89 55.35 82.22 -10.48 1.15 -7.96 -0.09 -0.95 -8.83 -10.04 -16.72 1.35 -42.24 -0.34 3.63 47.71 0.76 1.09 -41.55 0.72 -3.23 -14.48 -0.89 9.53 0.13 0.12 -5.27 3.69 15.61 -0.15 -41.81 -0.45 3.13 17.40 2.27 -0.20 -42.17 -0.68 6.67 -6.19 -9.28 0.04 10.44 0.19 -9.95 13.01 4.62 -0.10 9.60 0.15 -2.40 3.09 1.37 0.07 10.02 0.03 -3.76 4.99 2.17 0.04 9.60 0.05 0.11 -0.21 -0.65 -0.17 10.34 0.14 0.11 -0.21 -0.65 -0.14 9.38 0.38 2.69 -3.35 -11.89 -3.22 7.02 0.20 0.74 0.42 0.34 -16.31 0.55 1.49 -7.07 -5.10 54.47 -26.74 0.82 1.03 115.18 16.43 -6.36 -25.78 1.60 -0.83 0.75 -44.06 15.48 3.20 7.14 -0.05 -2.83 6.69 -2.72 16.80 1.96 0.25 -29.11 -20.79 -63.36 25.20 2.86 0.38 -68.75 -5.42 -12.90 26.18 1.94 -0.05 -5.39 -50.60 -41.58 
-25.25 87.83 55.55 82.22 -10.48 1.15 -7.87 -0.07 -0.95 -8.84 -10.04 -16.72 1.34 -42.24 -0.35 3.63 47.71 0.76 1.04 -41.56 0.71 -3.23 -14.49 -0.89 9.65 0.17 0.12 -5.27 3.69 15.61 -0.09 -41.81 -0.45 3.13 17.40 2.27 -0.17 -42.17 -0.66 6.67 -6.19 -9.28 0.11 10.46 0.20 -9.95 13.01 4.62 -0.14 9.59 0.19 -2.40 3.09 1.37 0.05 10.02 0.05 -3.76 4.99 2.17 0.01 9.61 0.08 0.11 -0.21 -0.65 -0.22 10.35 0.21 0.11 -0.21 -0.65 -0.16 9.38 0.41 2.69 -3.35 -11.89 -3.25 7.03 0.24 0.74 0.43 0.34 -16.36 0.60 1.56 -7.07 -5.12 54.46 -26.72 0.97 1.09 115.16 16.43 -6.37 -25.81 1.76 -0.88 0.76 -44.06 15.46 3.17 7.14 -0.02 -2.83 6.69 -2.72 16.80 1.94 0.24 -29.11 -20.79 -63.36 25.22 2.87 0.39 -68.75 -5.42 -12.89 26.19 1.96 -0.04 -5.39 -50.60 -41.58 
